<svg width="220" height="72" viewBox="0 0 220 72" fill="none" xmlns="http://www.w3.org/2000/svg">
<path d="M11.4059 22.6598H0.5V15.7023H31.2421V22.6598H20.3545H19.8545V23.1598V55.2419H11.9059V23.1598V22.6598H11.4059ZM45.2521 48.2845H61.8609V55.2419H36.6751V15.7023H61.8609V22.6598H45.2521H44.7521V23.1598V31.4736V31.9736H45.2521H60.5223V38.9509H45.2521H44.7521V39.4509V47.7845V48.2845H45.2521ZM94.4599 55.2419L92.2751 47.7302H95.2582H95.7582V47.2302V39.7874V39.2874H95.2582H89.8195L85.7445 25.2768L85.6396 24.9164H85.2644H84.971H84.5955L84.4908 25.277L80.4243 39.2874H74.8671H74.3671V39.7874V47.2302V47.7302H74.8671H77.9738L75.7935 55.2419H67.0936L79.4522 15.7023H90.8014L103.16 55.2419H94.4599ZM81.1753 40.2874H89.0689L90.9428 46.7302H79.3053L81.1753 40.2874ZM75.3671 40.2874H80.134L78.264 46.7302H75.3671V40.2874ZM91.9843 46.7302L90.1104 40.2874H94.7582V46.7302H91.9843ZM118.779 15.7023L127.005 37.3527C127.214 43.5396 128.853 49.3391 131.578 54.374L131.354 54.9846H126.406L117.504 30.5306L117.384 30.2016H117.034H116.722H116.222V30.7016V55.2419H108.384V15.7023H118.779ZM132.041 53.1098C130.113 49.3303 128.804 45.1289 128.262 40.6635L128.315 40.8021H128.66H129.1H129.445L129.567 40.4796L138.98 15.7023H145.604C142.861 20.1164 140.988 25.21 140.246 30.6954L132.041 53.1098ZM160.831 0.5C162.198 0.5 163.545 0.5903 164.868 0.765709C157.261 2.98662 150.724 7.99424 146.249 14.7023H138.635H138.29L138.168 15.0248L128.88 39.4734L127.999 37.1538C127.987 36.7707 127.982 36.3861 127.982 36C127.982 16.3572 142.724 0.5 160.831 0.5ZM147.457 14.7023C152.221 7.848 159.227 2.92252 167.286 1.18581C169.09 1.5746 170.842 2.12321 172.527 2.8175C160.873 8.59412 152.801 21.2978 152.801 36C152.801 50.7022 160.873 63.4059 172.527 69.1825C170.842 69.8768 169.09 70.4254 167.286 70.8142C158.819 68.9896 151.515 63.6451 146.75 56.2419H149.876H150.376V55.7419V15.2023V14.7023H149.876H147.457ZM153.801 36C153.801 21.3254 162.029 8.76364 173.741 3.34796C185.453 8.76364 193.681 21.3254 193.681 36C193.681 50.6746 185.453 63.2364 173.741 68.652C162.029 63.2364 153.801 50.6746 153.801 36ZM174.955 69.1825C186.609 63.4059 194.681 50.7022 194.681 36C194.681 21.2978 186.609 8.59412 174.955 2.8175C176.64 2.12321 178.391 1.5746 180.196 1.18581C195.225 4.42454 206.59 18.753 206.59 36C206.59 53.247 195.225 67.5755 180.196 70.8142C178.391 70.4254 176.64 69.8768 174.955 69.1825ZM169.704 71.2343C171.087 70.8305 172.435 70.3347 173.741 69.7533C175.047 70.3347 176.395 70.8305 177.778 71.2343C176.454 71.4097 175.107 71.5 173.741 71.5C172.374 71.5 171.027 71.4097 169.704 71.2343ZM173.741 2.24675C172.435 1.66532 171.087 1.16946 169.704 0.765708C171.027 0.590298 172.374 0.5 173.741 0.5C175.107 0.5 176.454 0.5903 177.778 0.765709C176.395 1.16946 175.047 1.66532 173.741 2.24675ZM207.59 36C207.59 19.1781 197.023 4.97256 182.614 0.765707C183.937 0.590298 185.284 0.5 186.65 0.5C204.757 0.5 219.5 16.3572 219.5 36C219.5 55.6428 204.757 71.5 186.65 71.5C185.284 71.5 183.937 71.4097 182.614 71.2343C197.023 67.0274 207.59 52.8219 207.59 36ZM164.868 71.2343C163.545 71.4097 162.198 71.5 160.831 71.5C148.898 71.5 138.426 64.6127 132.672 54.2935L139.919 34.4976C139.901 34.9959 139.891 35.4968 139.891 36C139.891 38.4399 140.113 40.8247 140.538 43.132V55.7419V56.2419H141.038H145.57C150.05 63.4796 156.867 68.8984 164.868 71.2343ZM149.376 55.2419H146.13C143.943 51.5854 142.361 47.4653 141.538 43.0456V30.8402V30.3402H141.306C142.103 24.9583 144.019 19.9844 146.786 15.7023H149.376V55.2419ZM141.538 47.2736C142.387 50.0952 143.546 52.7671 144.972 55.2419H141.538V47.2736ZM170.502 53.4194V53.9194H171.002H176.479H176.979V53.4194V39.456H189.878H190.378V38.956V33.044V32.544H189.878H176.979V18.5806V18.0806H176.479H171.002H170.502V18.5806V32.544H157.604H157.104V33.044V38.956V39.456H157.604H170.502V53.4194ZM189.378 38.456H176.979V33.544H189.378V38.456ZM175.979 33.544V38.456H171.502V33.544H175.979ZM175.979 19.0806V32.544H171.502V19.0806H175.979ZM158.104 33.544H170.502V38.456H158.104V33.544ZM171.502 39.456H175.979V52.9194H171.502V39.456Z" stroke="black"/>
</svg>
