<svg width="245" height="74" viewBox="0 0 245 74" fill="none" xmlns="http://www.w3.org/2000/svg">
<path d="M0 23.8032V15.6246H35.3491V23.8032H22.6675V57.2903H12.702V23.8032H0Z" fill="black"/>
<path d="M40.2859 57.2903V15.6246H69.4474V23.8032H50.3944V32.3479H67.9567V40.5467H50.3944V49.1118H69.4474V57.2903H40.2859Z" fill="black"/>
<path d="M84.8246 57.2903H73.9605L88.0716 15.6246H101.529L115.64 57.2903H104.776L94.9535 26.1224H94.6268L84.8246 57.2903ZM83.3747 40.8926H106.083V48.5422H83.3747V40.8926Z" fill="black"/>
<path d="M120.143 15.6246H132.661L143.28 41.4216H143.77L154.389 15.6246H166.908V57.2903H157.065V31.6969H156.717L146.67 57.0258H140.38L130.333 31.5544H129.986V57.2903H120.143V15.6246Z" fill="black"/>
<path d="M190.435 54.9032V19.0968H196.534V54.9032H190.435ZM175.513 40.0381V33.9619H211.455V40.0381H175.513Z" fill="black"/>
<path fill-rule="evenodd" clip-rule="evenodd" d="M207.861 72.8065C227.71 72.8065 243.802 56.7754 243.802 37C243.802 17.2246 227.71 1.19355 207.861 1.19355C188.011 1.19355 171.919 17.2246 171.919 37C171.919 56.7754 188.011 72.8065 207.861 72.8065ZM207.861 74C228.372 74 245 57.4345 245 37C245 16.5655 228.372 0 207.861 0C187.349 0 170.721 16.5655 170.721 37C170.721 57.4345 187.349 74 207.861 74Z" fill="black"/>
<path fill-rule="evenodd" clip-rule="evenodd" d="M193.484 72.8065C213.334 72.8065 229.425 56.7754 229.425 37C229.425 17.2246 213.334 1.19355 193.484 1.19355C173.634 1.19355 157.543 17.2246 157.543 37C157.543 56.7754 173.634 72.8065 193.484 72.8065ZM193.484 74C213.996 74 230.623 57.4345 230.623 37C230.623 16.5655 213.996 0 193.484 0C172.973 0 156.345 16.5655 156.345 37C156.345 57.4345 172.973 74 193.484 74Z" fill="black"/>
<path fill-rule="evenodd" clip-rule="evenodd" d="M179.108 72.8065C198.957 72.8065 215.049 56.7754 215.049 37C215.049 17.2246 198.957 1.19355 179.108 1.19355C159.258 1.19355 143.166 17.2246 143.166 37C143.166 56.7754 159.258 72.8065 179.108 72.8065ZM179.108 74C199.619 74 216.247 57.4345 216.247 37C216.247 16.5655 199.619 0 179.108 0C158.596 0 141.968 16.5655 141.968 37C141.968 57.4345 158.596 74 179.108 74Z" fill="black"/>
</svg>
