<svg width="908" height="273" viewBox="0 0 908 273" fill="none" xmlns="http://www.w3.org/2000/svg">
<path d="M0 87.8143V57.6422H131.008V87.8143H84.0087V211.355H47.0751V87.8143H0Z" fill="white"/>
<path d="M149.305 211.355V57.6422H257.381V87.8143H186.768V119.337H251.856V149.585H186.768V181.183H257.381V211.355H149.305Z" fill="white"/>
<path d="M314.37 211.355H274.107L326.404 57.6422H376.279L428.577 211.355H388.313L351.909 96.3706H350.698L314.37 211.355ZM308.997 150.861H393.157V179.081H308.997V150.861Z" fill="white"/>
<path d="M445.265 57.6422H491.659L531.014 152.812H532.831L572.186 57.6422H618.58V211.355H582.101V116.936H580.814L543.578 210.379H520.267L483.031 116.41H481.744V211.355H445.265V57.6422Z" fill="white"/>
<path d="M705.774 202.548V70.4516H728.378V202.548H705.774ZM650.474 147.708V125.292H783.677V147.708H650.474Z" fill="white"/>
<path fill-rule="evenodd" clip-rule="evenodd" d="M770.357 268.597C843.923 268.597 903.56 209.455 903.56 136.5C903.56 63.545 843.923 4.40323 770.357 4.40323C696.791 4.40323 637.154 63.545 637.154 136.5C637.154 209.455 696.791 268.597 770.357 268.597ZM770.357 273C846.375 273 908 211.887 908 136.5C908 61.1131 846.375 0 770.357 0C694.339 0 632.714 61.1131 632.714 136.5C632.714 211.887 694.339 273 770.357 273Z" fill="white"/>
<path fill-rule="evenodd" clip-rule="evenodd" d="M717.076 268.597C790.642 268.597 850.279 209.455 850.279 136.5C850.279 63.545 790.642 4.40323 717.076 4.40323C643.51 4.40323 583.873 63.545 583.873 136.5C583.873 209.455 643.51 268.597 717.076 268.597ZM717.076 273C793.094 273 854.719 211.887 854.719 136.5C854.719 61.1131 793.094 0 717.076 0C641.058 0 579.433 61.1131 579.433 136.5C579.433 211.887 641.058 273 717.076 273Z" fill="white"/>
<path fill-rule="evenodd" clip-rule="evenodd" d="M663.795 268.597C737.361 268.597 796.998 209.455 796.998 136.5C796.998 63.545 737.361 4.40323 663.795 4.40323C590.229 4.40323 530.592 63.545 530.592 136.5C530.592 209.455 590.229 268.597 663.795 268.597ZM663.795 273C739.813 273 801.438 211.887 801.438 136.5C801.438 61.1131 739.813 0 663.795 0C587.776 0 526.152 61.1131 526.152 136.5C526.152 211.887 587.776 273 663.795 273Z" fill="white"/>
</svg>
